<svg xmlns="http://www.w3.org/2000/svg" viewBox="0 0 128 128">
  <defs>
    <linearGradient id="bg" x1="0" y1="0" x2="128" y2="128">
      <stop offset="0" stop-color="#ff9500"/>
      <stop offset="1" stop-color="#ff2f00"/>
    </linearGradient>
    <linearGradient id="mount" x1="0" y1="32" x2="0" y2="94">
      <stop offset="0" stop-color="#ff8b00"/>
      <stop offset="1" stop-color="#ff3c00"/>
    </linearGradient>
    <linearGradient id="arrow" x1="0" y1="68" x2="0" y2="116">
      <stop offset="0" stop-color="#6af025"/>
      <stop offset="1" stop-color="#22b900"/>
    </linearGradient>
    <filter id="shadow" x="-20%" y="-20%" width="140%" height="140%">
      <feDropShadow dx="0" dy="5" stdDeviation="4" flood-color="#000" flood-opacity="0.28"/>
    </filter>
    <filter id="soft" x="-20%" y="-20%" width="140%" height="140%">
      <feDropShadow dx="0" dy="3" stdDeviation="2" flood-color="#000" flood-opacity="0.22"/>
    </filter>
  </defs>
  <rect width="128" height="128" rx="24" fill="url(#bg)"/>
  <g filter="url(#shadow)">
    <rect x="12" y="13" width="104" height="83" rx="18" fill="#fffaf5"/>
    <rect x="20" y="21" width="88" height="64" rx="8" fill="#fff7ef"/>
    <clipPath id="clip"><rect x="20" y="21" width="88" height="64" rx="8"/></clipPath>
    <g clip-path="url(#clip)">
      <path d="M20 76 L46 51 Q51 46 56 52 L64 61 L84 35 Q90 27 97 38 L108 56 L108 88 L20 88Z" fill="url(#mount)"/>
      <circle cx="45" cy="37" r="10" fill="#ffd000" filter="url(#soft)"/>
    </g>
    <g fill="none" stroke="#fff" stroke-width="6" stroke-linecap="round" filter="url(#soft)">
      <path d="M28 32 V24 H38"/>
      <path d="M100 32 V24 H90"/>
      <path d="M28 70 V78 H38"/>
      <path d="M100 70 V78 H90"/>
    </g>
  </g>
  <g filter="url(#shadow)">
    <circle cx="64" cy="89" r="27" fill="#fff"/>
    <path d="M58 72 Q58 67 64 67 Q70 67 70 72 V86 H82 Q87 86 84 91 L68 109 Q64 114 60 109 L44 91 Q41 86 46 86 H58Z" fill="url(#arrow)"/>
  </g>
</svg>
